HIERARCHY
ROOT Hips
{
	OFFSET 0.000000 0.000000 0.000000
	CHANNELS 6 Xposition Yposition Zposition Zrotation Yrotation Xrotation 
	JOINT LHipJoint
	{
		OFFSET 0.000000 0.000000 0.000000
		CHANNELS 3 Zrotation Yrotation Xrotation
		JOINT LeftUpLeg
		{
			OFFSET 1.363060 -1.794630 0.839290
			CHANNELS 3 Zrotation Yrotation Xrotation
			JOINT LeftLeg
			{
				OFFSET 2.448110 -6.726130 0.000000
				CHANNELS 3 Zrotation Yrotation Xrotation
				JOINT LeftFoot
				{
					OFFSET 2.562200 -7.039590 0.000000
					CHANNELS 3 Zrotation Yrotation Xrotation
					JOINT LeftToeBase
					{
						OFFSET 0.157640 -0.433110 2.322550
						CHANNELS 3 Zrotation Yrotation Xrotation
						End Site
						{
							OFFSET 0.000000 0.000000 0.000000
						}
					}
				}
			}
		}
	}
	JOINT RHipJoint
	{
		OFFSET 0.000000 0.000000 0.000000
		CHANNELS 3 Zrotation Yrotation Xrotation
		JOINT RightUpLeg
		{
			OFFSET -1.305520 -1.794630 0.839290
			CHANNELS 3 Zrotation Yrotation Xrotation
			JOINT RightLeg
			{
				OFFSET -2.542530 -6.985550 0.000000
				CHANNELS 3 Zrotation Yrotation Xrotation
				JOINT RightFoot
				{
					OFFSET -2.568260 -7.056230 0.000000
					CHANNELS 3 Zrotation Yrotation Xrotation
					JOINT RightToeBase
					{
						OFFSET -0.164730 -0.452590 2.363150
						CHANNELS 3 Zrotation Yrotation Xrotation
						End Site
						{
							OFFSET 0.000000 0.000000 0.000000
						}
					}
				}
			}
		}
	}
}
MOTION
Frames: 17
Frame Time: 0.008333
3.308333 17.246856 0.729276 12.723409 -83.276402 0.248598 -11.157492 1.011064 1.860655 -4.641874 10.243211 -16.648193 -2.591893 -1.637680 -3.669038 0.156278 3.396155 5.830669 1.134300 0.000000 -36.207799 9.697924 -2.380627 2.089607 3.152123 -7.164571 -11.643262 2.044620 1.255899 -1.374686 -0.657174 -8.095860 -2.160655 -2.339799 0.000000 -41.358900
3.303476 17.246669 0.729936 11.696031 -83.056316 1.275005 -11.136180 1.006281 1.879452 -4.557292 10.117633 -16.622259 -2.585377 -1.639439 -3.729614 0.149830 3.346267 5.864584 1.126500 -0.000000 -36.259400 9.713958 -2.383040 2.070613 3.229618 -7.203048 -11.557914 2.039984 1.255641 -1.398127 -0.675690 -8.235124 -2.169541 -2.365000 -0.000001 -41.347500
3.299289 17.246598 0.731815 10.664721 -82.843430 2.297771 -11.118489 0.998794 1.883952 -4.462285 10.011010 -16.575460 -2.577707 -1.638801 -3.796848 0.142955 3.286181 5.898329 1.115600 0.000000 -36.318400 9.727074 -2.381585 2.041878 3.312002 -7.227787 -11.447223 2.034005 1.254525 -1.427716 -0.696904 -8.389276 -2.169684 -2.392800 0.000000 -41.318900
3.295916 17.246605 0.734734 9.662373 -82.658852 3.280646 -11.104284 0.992644 1.876916 -4.359392 9.927791 -16.508855 -2.568329 -1.634735 -3.867737 0.136730 3.221407 5.928869 1.102500 -0.000001 -36.384300 9.737283 -2.374453 2.004948 3.395985 -7.234879 -11.312677 2.027346 1.254497 -1.463982 -0.720072 -8.550756 -2.160494 -2.421600 -0.000000 -41.272800
3.293129 17.246492 0.738389 8.730985 -82.500822 4.191527 -11.095150 0.985403 1.854442 -4.254132 9.867333 -16.427757 -2.558168 -1.628172 -3.937999 0.131405 3.155608 5.952311 1.087700 -0.000000 -36.458100 9.743651 -2.362271 1.958464 3.477059 -7.225428 -11.160886 2.020024 1.255307 -1.508121 -0.744944 -8.712685 -2.145320 -2.449200 0.000000 -41.212800
3.290875 17.246150 0.742534 7.896760 -82.372054 5.017232 -11.091876 0.974191 1.809726 -4.151193 9.826631 -16.340982 -2.547630 -1.619095 -4.004156 0.127711 3.093959 5.965255 1.072200 0.000000 -36.539800 9.745731 -2.342000 1.895902 3.551739 -7.200562 -11.002211 2.012473 1.257230 -1.559141 -0.770551 -8.867561 -2.128030 -2.473300 -0.000000 -41.143100
3.288781 17.245549 0.746910 7.168616 -82.296050 5.747472 -11.092747 0.966659 1.752525 -4.052617 9.804692 -16.252017 -2.536121 -1.607047 -4.066204 0.126715 3.042851 5.964969 1.057200 0.000000 -36.627199 9.744766 -2.312806 1.821402 3.618463 -7.161599 -10.841848 2.006122 1.263427 -1.614245 -0.794918 -9.006554 -2.109476 -2.493099 0.000000 -41.067100
3.286890 17.244804 0.751415 6.511831 -82.289591 6.376304 -11.094187 0.975721 1.712302 -3.956627 9.802543 -16.150914 -2.522520 -1.592941 -4.121708 0.128324 3.006172 5.952399 1.044000 0.000000 -36.715400 9.743068 -2.284172 1.759127 3.677999 -7.116538 -10.673692 2.002074 1.275281 -1.668796 -0.816558 -9.124420 -2.088797 -2.508300 0.000000 -40.985400
3.284840 17.244073 0.755953 5.910676 -82.335414 6.907988 -11.094964 1.001546 1.700342 -3.863268 9.813865 -16.035012 -2.507198 -1.578665 -4.166922 0.131737 2.984711 5.929875 1.033600 -0.000000 -36.799800 9.741550 -2.263730 1.721183 3.731327 -7.075333 -10.499328 2.000047 1.290144 -1.718404 -0.835079 -9.221360 -2.067740 -2.519800 -0.000000 -40.899600
3.282576 17.243390 0.760366 5.365755 -82.410918 7.356404 -11.095474 1.036911 1.708920 -3.775313 9.829350 -15.914161 -2.491061 -1.564994 -4.200281 0.136582 2.978198 5.899957 1.026401 0.000000 -36.877000 9.739901 -2.250328 1.701031 3.779541 -7.045412 -10.330754 1.999726 1.305559 -1.758843 -0.850086 -9.298912 -2.049674 -2.528200 0.000000 -40.813400
3.279725 17.242804 0.764587 4.884768 -82.499114 7.733131 -11.095778 1.077195 1.731613 -3.695587 9.839981 -15.798981 -2.475022 -1.552485 -4.222462 0.142544 2.984872 5.864594 1.022100 0.000000 -36.945799 9.738220 -2.241734 1.691459 3.823552 -7.033130 -10.179809 2.001126 1.320497 -1.785699 -0.860562 -9.357958 -2.038202 -2.534399 0.000000 -40.730900
3.276042 17.242265 0.768487 4.472524 -82.587050 8.044522 -11.095525 1.120193 1.765753 -3.626375 9.839187 -15.698090 -2.459879 -1.541634 -4.235575 0.149123 3.001053 5.825742 1.020200 -0.000000 -37.005000 9.736855 -2.236383 1.688255 3.864225 -7.044255 -10.055735 2.004308 1.334657 -1.795073 -0.865752 -9.400175 -2.036969 -2.539200 0.000000 -40.656400
3.271239 17.241744 0.772017 4.132924 -82.664543 8.294222 -11.094227 1.165372 1.811117 -3.569322 9.822563 -15.617731 -2.446365 -1.532867 -4.241583 0.155675 3.021467 5.784936 1.019700 -0.000000 -37.056300 9.736259 -2.233607 1.689725 3.902453 -7.083057 -9.964178 2.009273 1.348118 -1.783943 -0.865258 -9.427826 -2.049519 -2.543400 -0.000000 -40.595000
3.265223 17.241176 0.775192 3.863202 -82.723184 8.487058 -11.091397 1.212658 1.868144 -3.525520 9.788381 -15.561729 -2.435107 -1.526505 -4.243241 0.161472 3.040038 5.743819 1.019399 0.000000 -37.100900 9.736848 -2.233072 1.695429 3.938784 -7.152077 -9.907872 2.015900 1.360968 -1.750669 -0.858862 -9.443714 -2.077610 -2.547900 -0.000000 -40.550000
3.257810 17.240497 0.778022 3.659681 -82.757511 8.629294 -11.086715 1.262327 1.937273 -3.494904 9.736701 -15.531682 -2.426614 -1.522783 -4.243275 0.165837 3.050901 5.703726 1.018200 0.000000 -37.141399 9.738887 -2.234751 1.705763 3.974129 -7.250881 -9.887191 2.023977 1.373453 -1.695010 -0.846932 -9.451221 -2.122631 -2.553400 0.000000 -40.523500
3.249017 17.239640 0.780594 3.516543 -82.765369 8.727458 -11.080091 1.314405 2.017641 -3.477275 9.670360 -15.527736 -2.421279 -1.521657 -4.243510 0.168207 3.048579 5.665059 1.014900 0.000000 -37.180900 9.742484 -2.238221 1.720790 4.008291 -7.376424 -9.900107 2.033174 1.385857 -1.618761 -0.829968 -9.453311 -2.184666 -2.560200 0.000000 -40.516900
3.239088 17.238536 0.782974 3.422047 -82.747621 8.790270 -11.071607 1.368463 2.107475 -3.471514 9.593831 -15.548171 -2.419247 -1.522877 -4.245442 0.168164 3.028604 5.627844 1.008400 0.000000 -37.222400 9.747472 -2.242939 1.740534 4.041278 -7.522694 -9.942417 2.043044 1.398309 -1.524567 -0.809085 -9.453248 -2.262665 -2.568500 0.000000 -40.530000
